<svg width="199" height="32" viewBox="0 0 199 32" fill="none" xmlns="http://www.w3.org/2000/svg">
<path d="M2.06018 25V7.68915H12.04C14.3588 7.68915 16.1158 8.08157 17.3108 8.8664C18.5238 9.63339 19.1302 10.7839 19.1302 12.3179C19.1302 13.2989 18.8894 14.0748 18.4078 14.6456C17.9262 15.1985 17.2395 15.6088 16.3476 15.8764C15.4736 16.1439 14.4391 16.3134 13.244 16.3847L13.351 16.1974C14.225 16.2153 15.0455 16.2777 15.8125 16.3847C16.5974 16.4917 17.2841 16.6879 17.8727 16.9733C18.4613 17.2587 18.9251 17.6601 19.264 18.1773C19.6029 18.6768 19.7724 19.3367 19.7724 20.1572C19.7724 21.2275 19.487 22.1193 18.9162 22.8328C18.3454 23.5284 17.5516 24.0546 16.5349 24.4114C15.5182 24.7681 14.341 24.9643 13.0032 25H2.06018ZM5.61867 22.0569H12.6286C13.7524 22.0569 14.6175 21.8785 15.2239 21.5218C15.8304 21.1472 16.1336 20.5586 16.1336 19.7559C16.1336 19.1673 15.9552 18.7392 15.5985 18.4716C15.2417 18.2041 14.7691 18.0436 14.1804 17.99C13.5918 17.9187 12.9586 17.883 12.2808 17.883H5.61867V22.0569ZM5.61867 15.0202H11.9062C13.03 15.0202 13.8951 14.8596 14.5015 14.5386C15.108 14.1997 15.4112 13.6289 15.4112 12.8262C15.4112 12.0236 15.108 11.4617 14.5015 11.1406C13.8951 10.8017 13.0924 10.6323 12.0935 10.6323H5.61867V15.0202ZM21.6793 11.7025H25.1575V25H21.6793V11.7025ZM30.2678 14.5653C29.269 14.5653 28.4039 14.7615 27.6726 15.154C26.9412 15.5285 26.3526 15.9923 25.9067 16.5452C25.4608 17.0982 25.1486 17.6333 24.9702 18.1506L24.9435 16.679C24.9613 16.465 25.0327 16.1528 25.1575 15.7426C25.2824 15.3145 25.4697 14.8596 25.7194 14.378C25.9691 13.8786 26.2991 13.4059 26.7094 12.96C27.1196 12.4962 27.619 12.1217 28.2077 11.8363C28.7963 11.5509 29.483 11.4082 30.2678 11.4082V14.5653ZM39.4548 25.3211C37.7781 25.3211 36.2977 25.0535 35.0134 24.5184C33.747 23.9833 32.757 23.2074 32.0435 22.1907C31.3301 21.1561 30.9733 19.8897 30.9733 18.3914C30.9733 16.8931 31.3301 15.6266 32.0435 14.5921C32.757 13.5397 33.747 12.746 35.0134 12.2108C36.2977 11.6757 37.7781 11.4082 39.4548 11.4082C41.1315 11.4082 42.5941 11.6757 43.8427 12.2108C45.1092 12.746 46.0991 13.5397 46.8126 14.5921C47.5261 15.6266 47.8828 16.8931 47.8828 18.3914C47.8828 19.8897 47.5261 21.1561 46.8126 22.1907C46.0991 23.2074 45.1092 23.9833 43.8427 24.5184C42.5941 25.0535 41.1315 25.3211 39.4548 25.3211ZM39.4548 22.6455C40.3824 22.6455 41.2118 22.485 41.9431 22.1639C42.6923 21.825 43.2809 21.3434 43.709 20.7191C44.1371 20.077 44.3511 19.3011 44.3511 18.3914C44.3511 17.4817 44.1371 16.7058 43.709 16.0636C43.2809 15.4037 42.7012 14.9042 41.9699 14.5653C41.2385 14.2264 40.4002 14.057 39.4548 14.057C38.5273 14.057 37.689 14.2264 36.9398 14.5653C36.1907 14.9042 35.5931 15.3948 35.1472 16.0369C34.7191 16.679 34.5051 17.4639 34.5051 18.3914C34.5051 19.3011 34.7191 20.077 35.1472 20.7191C35.5753 21.3434 36.1639 21.825 36.9131 22.1639C37.6622 22.485 38.5095 22.6455 39.4548 22.6455ZM66.4664 22.592L65.3695 22.5652L69.7039 11.7025H73.5299L67.6704 25H64.4063L60.1254 14.271H61.3026L56.888 25H53.6238L47.9248 11.7025H51.7509L55.9248 22.592H54.8278L58.7341 11.7025H62.7207L66.4664 22.592ZM73.7366 20.5853H76.9473C77.1435 21.1918 77.5448 21.6912 78.1513 22.0836C78.7756 22.4582 79.5872 22.6455 80.5861 22.6455C81.2639 22.6455 81.7901 22.5831 82.1646 22.4582C82.5392 22.3334 82.7979 22.155 82.9406 21.9231C83.0833 21.6734 83.1546 21.3969 83.1546 21.0937C83.1546 20.7191 83.0387 20.4337 82.8068 20.2375C82.5749 20.0235 82.2182 19.854 81.7366 19.7292C81.255 19.6043 80.6396 19.4884 79.8904 19.3813C79.1413 19.2565 78.4189 19.1049 77.7232 18.9265C77.0276 18.7481 76.4122 18.5162 75.8771 18.2308C75.342 17.9276 74.9139 17.553 74.5928 17.1071C74.2896 16.6433 74.138 16.0815 74.138 15.4215C74.138 14.7794 74.2896 14.2086 74.5928 13.7092C74.9139 13.2097 75.3509 12.7905 75.9038 12.4516C76.4746 12.1127 77.1346 11.8541 77.8838 11.6757C78.6507 11.4974 79.4712 11.4082 80.3453 11.4082C81.6652 11.4082 82.7622 11.6044 83.6362 11.9968C84.5102 12.3714 85.1613 12.9065 85.5894 13.6021C86.0353 14.2799 86.2582 15.0648 86.2582 15.9566H83.1814C83.0387 15.2967 82.7533 14.824 82.3252 14.5386C81.8971 14.2353 81.2371 14.0837 80.3453 14.0837C79.4712 14.0837 78.8113 14.2175 78.3654 14.4851C77.9194 14.7526 77.6965 15.1183 77.6965 15.582C77.6965 15.9566 77.8302 16.2509 78.0978 16.465C78.3832 16.6612 78.7934 16.8217 79.3286 16.9466C79.8815 17.0714 80.5682 17.2052 81.3887 17.3479C82.0844 17.4906 82.7443 17.6511 83.3686 17.8295C84.0108 18.0079 84.5816 18.2398 85.081 18.5252C85.5804 18.7927 85.9729 19.1584 86.2582 19.6221C86.5615 20.0681 86.7131 20.6388 86.7131 21.3345C86.7131 22.1907 86.4634 22.9131 85.9639 23.5017C85.4823 24.0903 84.7867 24.5452 83.877 24.8662C82.9673 25.1695 81.8793 25.3211 80.6128 25.3211C79.4891 25.3211 78.517 25.2051 77.6965 24.9732C76.8938 24.7235 76.2249 24.4114 75.6898 24.0368C75.1547 23.6444 74.7355 23.2341 74.4323 22.806C74.1469 22.3601 73.9507 21.9409 73.8437 21.5485C73.7366 21.1561 73.701 20.8351 73.7366 20.5853ZM100.692 20.5853H104.063C103.92 21.495 103.537 22.3066 102.912 23.0201C102.306 23.7336 101.476 24.2954 100.424 24.7057C99.3717 25.1159 98.0874 25.3211 96.5713 25.3211C94.8767 25.3211 93.3784 25.0535 92.0763 24.5184C90.7742 23.9655 89.7575 23.1717 89.0262 22.1372C88.2949 21.1026 87.9292 19.854 87.9292 18.3914C87.9292 16.9287 88.286 15.6801 88.9994 14.6456C89.7129 13.5932 90.7029 12.7905 91.9693 12.2376C93.2536 11.6847 94.7519 11.4082 96.4642 11.4082C98.2123 11.4082 99.666 11.6847 100.825 12.2376C101.985 12.7905 102.841 13.6289 103.394 14.7526C103.965 15.8585 104.206 17.2766 104.116 19.0068H91.4342C91.5234 19.6846 91.7731 20.2999 92.1833 20.8529C92.6114 21.4058 93.1822 21.8428 93.8957 22.1639C94.627 22.485 95.4921 22.6455 96.491 22.6455C97.5969 22.6455 98.5155 22.4582 99.2468 22.0836C99.996 21.6912 100.478 21.1918 100.692 20.5853ZM96.3037 14.057C95.0194 14.057 93.976 14.3424 93.1733 14.9132C92.3706 15.4661 91.8534 16.1528 91.6215 16.9733H100.665C100.576 16.0815 100.148 15.3769 99.3806 14.8596C98.6314 14.3245 97.6058 14.057 96.3037 14.057ZM105.902 11.7025H109.38V25H105.902V11.7025ZM114.49 14.5653C113.491 14.5653 112.626 14.7615 111.895 15.154C111.164 15.5285 110.575 15.9923 110.129 16.5452C109.683 17.0982 109.371 17.6333 109.193 18.1506L109.166 16.679C109.184 16.465 109.255 16.1528 109.38 15.7426C109.505 15.3145 109.692 14.8596 109.942 14.378C110.192 13.8786 110.522 13.4059 110.932 12.96C111.342 12.4962 111.842 12.1217 112.43 11.8363C113.019 11.5509 113.706 11.4082 114.49 11.4082V14.5653ZM118.31 21.9499V25H114.27V21.9499H118.31Z" fill="#F0500F"/>
<path d="M124.718 5.86978V8.91991H120.678V5.86978H124.718ZM120.945 11.7025H124.424V25H120.945V11.7025ZM142.874 19.7559C142.784 20.9153 142.41 21.9142 141.75 22.7525C141.108 23.5909 140.216 24.233 139.074 24.6789C137.933 25.107 136.577 25.3211 135.007 25.3211C133.366 25.3211 131.895 25.0624 130.593 24.5452C129.309 24.01 128.292 23.2341 127.543 22.2174C126.811 21.1829 126.446 19.9075 126.446 18.3914C126.446 16.8752 126.811 15.5999 127.543 14.5653C128.292 13.5308 129.309 12.746 130.593 12.2108C131.895 11.6757 133.366 11.4082 135.007 11.4082C136.577 11.4082 137.924 11.6311 139.048 12.0771C140.171 12.5052 141.054 13.1295 141.696 13.95C142.356 14.7705 142.74 15.7604 142.847 16.9198H139.663C139.36 16.028 138.798 15.3323 137.977 14.8329C137.157 14.3335 136.167 14.0837 135.007 14.0837C134.08 14.0837 133.233 14.2443 132.466 14.5653C131.717 14.8864 131.11 15.368 130.646 16.0101C130.2 16.6344 129.977 17.4282 129.977 18.3914C129.977 19.3367 130.2 20.1305 130.646 20.7726C131.092 21.3969 131.699 21.8696 132.466 22.1907C133.233 22.4939 134.08 22.6455 135.007 22.6455C136.256 22.6455 137.273 22.3958 138.058 21.8964C138.86 21.3969 139.404 20.6834 139.69 19.7559H142.874ZM160.012 25H156.534V11.7025H160.012V25ZM156.721 18.6054L156.748 19.5151C156.712 19.7648 156.623 20.1305 156.48 20.6121C156.337 21.0759 156.114 21.5753 155.811 22.1104C155.526 22.6455 155.151 23.1628 154.687 23.6622C154.224 24.1438 153.653 24.5452 152.975 24.8662C152.297 25.1695 151.495 25.3211 150.567 25.3211C149.836 25.3211 149.113 25.2319 148.4 25.0535C147.704 24.8751 147.071 24.5808 146.5 24.1706C145.929 23.7425 145.475 23.1717 145.136 22.4582C144.797 21.7447 144.627 20.844 144.627 19.7559V11.7025H148.106V19.1673C148.106 20.0235 148.239 20.7013 148.507 21.2007C148.792 21.6823 149.203 22.0212 149.738 22.2174C150.273 22.4136 150.906 22.5117 151.637 22.5117C152.601 22.5117 153.43 22.3066 154.126 21.8964C154.821 21.4683 155.383 20.951 155.811 20.3445C156.257 19.7381 156.56 19.1584 156.721 18.6054Z" fill="#BCBDC3"/>
<path d="M191.031 12.709C191.032 12.8854 190.979 13.0579 190.877 13.2025C190.776 13.3471 190.633 13.4565 190.466 13.5156L187.055 14.7563L185.814 18.1674C185.753 18.3321 185.643 18.4741 185.499 18.5744C185.355 18.6747 185.183 18.7284 185.008 18.7284C184.832 18.7284 184.661 18.6747 184.516 18.5744C184.372 18.4741 184.262 18.3321 184.201 18.1674L182.961 14.7557L179.549 13.5156C179.385 13.4545 179.243 13.3444 179.142 13.2002C179.042 13.056 178.988 12.8846 178.988 12.709C178.988 12.5333 179.042 12.3619 179.142 12.2177C179.243 12.0735 179.385 11.9634 179.549 11.9023L182.961 10.6622L184.201 7.25048C184.262 7.08581 184.372 6.94379 184.516 6.8435C184.661 6.74321 184.832 6.68945 185.008 6.68945C185.183 6.68945 185.355 6.74321 185.499 6.8435C185.643 6.94379 185.753 7.08581 185.814 7.25048L187.055 10.6622L190.466 11.9023C190.633 11.9614 190.776 12.0708 190.877 12.2154C190.979 12.36 191.032 12.5325 191.031 12.709Z" fill="#F0500F"/>
<path d="M197.526 19.666C196.934 21.8062 195.8 23.7791 194.202 25.377C191.771 27.8084 188.473 29.1748 185.034 29.1748C181.596 29.1747 178.298 27.8083 175.866 25.377C174.277 23.7873 173.145 21.8267 172.55 19.6992C173.289 20.4092 174.216 21.0398 175.277 21.5742L175.409 21.6396C178.188 23.0053 181.635 23.6592 185.021 23.6592C188.462 23.6591 191.964 22.9845 194.765 21.5742L194.902 21.5039C195.921 20.977 196.813 20.359 197.526 19.666ZM183.716 22.2861C183.756 22.2882 183.795 22.2901 183.835 22.292C183.795 22.2901 183.756 22.2882 183.716 22.2861ZM181.872 22.1191C182.122 22.1517 182.374 22.1804 182.627 22.2051C182.374 22.1805 182.122 22.1516 181.872 22.1191ZM179.339 21.6396C179.663 21.7214 179.991 21.7963 180.324 21.8633C179.991 21.7963 179.663 21.7214 179.339 21.6396ZM174.683 19.6875C174.913 19.8395 175.157 19.9902 175.418 20.1348C175.157 19.9902 174.913 19.8395 174.683 19.6875ZM195.192 19.7969C195.17 19.811 195.149 19.8268 195.126 19.8408C195.149 19.8268 195.17 19.811 195.192 19.7969ZM195.595 19.5293C195.584 19.5369 195.573 19.5451 195.562 19.5527C195.573 19.5451 195.584 19.5369 195.595 19.5293ZM174.188 19.3428C174.124 19.2939 174.062 19.2428 174 19.1934C174.062 19.2428 174.124 19.2939 174.188 19.3428ZM196.05 19.1885C196.018 19.2142 195.986 19.241 195.953 19.2666C195.986 19.241 196.018 19.2142 196.05 19.1885ZM173.843 19.0674C173.779 19.0142 173.719 18.9591 173.659 18.9053C173.719 18.9591 173.779 19.0142 173.843 19.0674ZM196.416 18.876C196.377 18.9112 196.339 18.9475 196.299 18.9824C196.339 18.9475 196.377 18.9112 196.416 18.876ZM173.526 18.7852C173.461 18.7238 173.4 18.6607 173.339 18.5986C173.4 18.6607 173.461 18.7238 173.526 18.7852ZM196.707 18.5957C196.679 18.6243 196.651 18.6532 196.622 18.6816C196.651 18.6532 196.679 18.6243 196.707 18.5957ZM173.249 18.5078C173.188 18.443 173.131 18.377 173.074 18.3115C173.131 18.377 173.188 18.443 173.249 18.5078ZM197.099 18.1592C197.043 18.2291 196.982 18.297 196.921 18.3662C196.982 18.297 197.043 18.2291 197.099 18.1592ZM172.989 18.2129C172.937 18.1491 172.888 18.0839 172.84 18.0195C172.888 18.0839 172.937 18.1491 172.989 18.2129ZM197.302 17.8877C197.251 17.9608 197.196 18.033 197.14 18.1055C197.196 18.033 197.251 17.9608 197.302 17.8877ZM172.761 17.9131C172.715 17.849 172.673 17.7843 172.632 17.7197C172.673 17.7843 172.715 17.849 172.761 17.9131ZM197.495 17.584C197.454 17.6538 197.411 17.7237 197.365 17.793C197.411 17.7237 197.454 17.6538 197.495 17.584ZM172.57 17.6221C172.53 17.556 172.494 17.4894 172.458 17.4229C172.493 17.4894 172.53 17.556 172.57 17.6221ZM197.655 17.2881C197.618 17.3644 197.579 17.4408 197.536 17.5166C197.579 17.4408 197.618 17.3644 197.655 17.2881ZM172.401 17.3145C172.367 17.245 172.335 17.1753 172.306 17.1055C172.335 17.1753 172.367 17.245 172.401 17.3145ZM197.779 17.0078C197.774 17.0215 197.768 17.0351 197.763 17.0488C197.768 17.0351 197.774 17.0215 197.779 17.0078ZM172.024 15.834C172.032 16.2316 172.115 16.6284 172.271 17.0205C172.116 16.6318 172.032 16.2389 172.023 15.8447C172.024 15.8412 172.024 15.8376 172.024 15.834ZM197.836 16.8525C197.831 16.8656 197.827 16.8786 197.822 16.8916C197.827 16.8786 197.831 16.8656 197.836 16.8525ZM198.011 16.0117C198.009 16.0323 198.007 16.0527 198.005 16.0732C198.007 16.0527 198.009 16.0323 198.011 16.0117ZM174.582 19.623C174.496 19.5648 174.413 19.5046 174.331 19.4453C174.413 19.5046 174.496 19.5648 174.582 19.623Z" fill="#F0500F"/>
<path d="M198.019 6.83661C198.02 6.95423 197.985 7.06922 197.917 7.16558C197.85 7.26194 197.754 7.3349 197.643 7.3743L195.369 8.20128L194.542 10.475C194.502 10.5848 194.428 10.6795 194.332 10.7463C194.236 10.8132 194.122 10.849 194.005 10.849C193.887 10.849 193.773 10.8132 193.677 10.7463C193.581 10.6795 193.508 10.5848 193.467 10.475L192.64 8.20093L190.366 7.3743C190.256 7.33356 190.162 7.2602 190.095 7.16408C190.028 7.06796 189.992 6.95369 189.992 6.83661C189.992 6.71952 190.028 6.60525 190.095 6.50913C190.162 6.41301 190.256 6.33965 190.366 6.29891L192.64 5.47229L193.467 3.19818C193.508 3.08842 193.581 2.99375 193.677 2.9269C193.773 2.86005 193.887 2.82422 194.005 2.82422C194.122 2.82422 194.236 2.86005 194.332 2.9269C194.428 2.99375 194.502 3.08842 194.542 3.19818L195.369 5.47229L197.643 6.29891C197.754 6.33831 197.85 6.41127 197.917 6.50763C197.985 6.60399 198.02 6.71898 198.019 6.83661Z" fill="#F0500F"/>
<path d="M185.161 2.8252C187.296 2.85168 189.372 3.40254 191.216 4.40625L189.854 4.90234L189.845 4.90625C189.563 5.01095 189.308 5.17516 189.099 5.38672C187.849 4.8961 186.512 4.62709 185.146 4.60938L184.994 4.6084C182.068 4.6099 179.26 5.75503 177.168 7.7959L177.068 7.89355C175.242 9.71967 174.111 12.1112 173.845 14.6562L173.807 15.7266C173.784 16.3693 174.28 17.5773 176.681 18.7861L176.788 18.8398C179.04 19.9461 181.99 20.5381 185.021 20.5381C188.099 20.538 191.094 19.9267 193.359 18.7861L193.478 18.7266C195.919 17.465 196.303 16.2296 196.223 15.5957L196.213 15.5146L196.21 15.4326C196.165 14.1582 195.901 12.9124 195.444 11.7432C195.659 11.5323 195.827 11.2776 195.933 10.9932L195.936 10.9844L196.428 9.62988C197.379 11.3842 197.922 13.3467 197.993 15.3701C198.221 17.1573 196.944 18.9791 194.162 20.3799C189.02 22.9693 181.021 22.9692 175.879 20.3799C173.25 19.0558 171.964 17.3557 172.023 15.6641L172 15.6631C172.042 12.2736 173.407 9.03176 175.807 6.63184C178.245 4.19371 181.552 2.82422 185 2.82422L185.161 2.8252ZM192.685 5.33984C193.216 5.72944 193.722 6.16004 194.193 6.63184C194.669 7.1074 195.101 7.61804 195.493 8.1543L195.365 8.20215L194.663 10.1338C194.208 9.36164 193.661 8.63955 193.025 7.98828L192.932 7.89355C192.261 7.22285 191.513 6.64773 190.71 6.17285L192.637 5.47363L192.685 5.33984Z" fill="#F0500F"/>
</svg>
